<?xml version="1.0" encoding="UTF-8"?>
<svg id="logo" xmlns="http://www.w3.org/2000/svg" width="404.43" height="404.43" viewBox="0 0 404.43 404.43">
  <defs>
    <style>
      .cls-1 {
        fill: #fff;
      }
    </style>
  </defs>
  <path class="cls-1" d="M112.89,198.54c-10.78-5.56-22.51-6.46-34.91-2.66.16,5.63,1.75,20.92,13.61,34.51,13.18,15.1,34.65,23.95,63.87,26.33-4.45-12.42-18.26-45.63-42.57-58.18Z"/>
  <path class="cls-1" d="M290.47,196.31c-24.31,12.55-38.12,45.75-42.57,58.18,29.22-2.38,50.69-11.23,63.87-26.33,11.86-13.6,13.46-28.86,13.61-34.51-5.02-1.54-9.93-2.3-14.71-2.3-7.03,0-13.78,1.66-20.19,4.97Z"/>
  <path class="cls-1" d="M201.68,12.35C96.35,12.35,10.96,97.74,10.96,203.08s85.39,190.72,190.72,190.72,190.72-85.39,190.72-190.72S307.01,12.35,201.68,12.35ZM174.25,293.98l-.12,2.31-23.1-7.84c-30.31-3.48-52.95-14.59-53.18-14.71-56.74-26.8-40.55-93.81-38.51-101.36l.36-1.33,1.37.03c49.57,1.15,76.18,30.58,77.29,31.84,35.9,34.57,36.55,78.44,35.89,91.06ZM196.77,196.28c-3.3-.12-50.92-2.52-51.3-43.23v-.14s.01-.14.01-.14c.03-.3,3.13-30.43,31.92-39.51l7.47-2.35-4.41,6.48c-.78,1.15-18.93,28.45,4.96,45.41,5.97,4.24,13.51,5.83,20.69,4.37,7.63-1.56,17.84-5.33,23.19-14.47,4.86-8.32,4.99-19.8.38-34.13l-2.81-8.71,7.11,5.76c.29.24,29.24,24.2,15.41,55.39-.07.19-10.68,25.85-43.66,25.86-2.83,0-5.81-.19-8.97-.6ZM305.48,271.52c-.91.45-23.23,11.25-53.14,14.69l-.2.04-22.91,7.8-.12-2.31c-.66-12.62,0-56.49,35.98-91.15,1.01-1.15,27.56-30.59,77.2-31.74l1.38-.03.36,1.33c2.03,7.55,18.23,74.56-38.54,101.38Z"/>
  <path d="M61.07,171.08l-1.37-.03-.36,1.33c-2.03,7.55-18.23,74.56,38.51,101.36.22.11,22.87,11.23,53.18,14.71l23.1,7.84.12-2.31c.66-12.62,0-56.49-35.89-91.06-1.11-1.25-27.72-30.68-77.29-31.84ZM91.6,230.39c-11.86-13.59-13.45-28.88-13.61-34.51,12.4-3.79,24.13-2.9,34.91,2.66,24.31,12.55,38.13,45.76,42.57,58.18-29.22-2.38-50.69-11.23-63.87-26.33Z"/>
  <path d="M344.02,170.14l-.36-1.33-1.38.03c-49.64,1.15-76.19,30.59-77.2,31.74-35.99,34.66-36.64,78.53-35.98,91.15l.12,2.31,22.91-7.8.2-.04c29.91-3.44,52.23-14.24,53.14-14.69,56.77-26.82,40.58-93.82,38.54-101.38ZM311.77,228.16c-13.18,15.1-34.65,23.95-63.87,26.33,4.45-12.43,18.27-45.63,42.57-58.18,6.41-3.31,13.17-4.97,20.19-4.97,4.78,0,9.69.77,14.71,2.3-.16,5.65-1.75,20.92-13.61,34.51Z"/>
  <path d="M249.4,171.02c13.82-31.2-15.12-55.16-15.41-55.39l-7.11-5.76,2.81,8.71c4.61,14.33,4.49,25.81-.38,34.13-5.34,9.14-15.56,12.92-23.19,14.47-7.18,1.46-14.72-.13-20.69-4.37-23.88-16.96-5.74-44.26-4.96-45.41l4.41-6.48-7.47,2.35c-28.8,9.07-31.89,39.21-31.92,39.51v.14s-.01.14-.01.14c.38,40.71,48,43.12,51.3,43.23,3.16.41,6.14.6,8.97.6,32.99,0,43.59-25.67,43.66-25.86Z"/>
</svg>