<svg width="25" height="25" viewBox="0 0 25 25" fill="none" xmlns="http://www.w3.org/2000/svg">
<path fill-rule="evenodd" clip-rule="evenodd" d="M7.81299 0H17.188C21.5021 0 25.0005 3.49844 25.0005 7.8125V17.1875C25.0005 21.5016 21.5021 25 17.188 25H7.81299C3.49893 25 0.000488281 21.5016 0.000488281 17.1875V7.8125C0.000488281 3.49844 3.49893 0 7.81299 0ZM17.188 22.6562C20.2036 22.6562 22.6567 20.2031 22.6567 17.1875V7.8125C22.6567 4.79688 20.2036 2.34375 17.188 2.34375H7.81299C4.79736 2.34375 2.34424 4.79688 2.34424 7.8125V17.1875C2.34424 20.2031 4.79736 22.6562 7.81299 22.6562H17.188Z" fill="#E4FCFF"/>
<path fill-rule="evenodd" clip-rule="evenodd" d="M6.25049 12.5C6.25049 9.04844 9.04893 6.25 12.5005 6.25C15.9521 6.25 18.7505 9.04844 18.7505 12.5C18.7505 15.9516 15.9521 18.75 12.5005 18.75C9.04893 18.75 6.25049 15.9516 6.25049 12.5ZM8.59424 12.5C8.59424 14.6531 10.3474 16.4062 12.5005 16.4062C14.6536 16.4062 16.4067 14.6531 16.4067 12.5C16.4067 10.3453 14.6536 8.59375 12.5005 8.59375C10.3474 8.59375 8.59424 10.3453 8.59424 12.5Z" fill="#E4FCFF"/>
<circle cx="19.219" cy="5.78008" r="0.832812" fill="#E4FCFF"/>
</svg>
