<?xml version="1.0" encoding="UTF-8"?>
<svg id="logo" xmlns="http://www.w3.org/2000/svg" width="939.95" height="222.89" viewBox="0 0 939.95 222.89">
  <defs>
    <style>
      .cls-1 {
        fill: #e6f5fa;
      }

      .cls-2 {
        fill: none;
      }
    </style>
  </defs>
  <path class="cls-2" d="M246.05,104.17c-24.31,12.55-38.12,45.75-42.57,58.18,29.22-2.38,50.69-11.23,63.87-26.33,11.86-13.6,13.46-28.86,13.61-34.51-5.02-1.54-9.93-2.3-14.71-2.3-7.03,0-13.78,1.66-20.19,4.97Z"/>
  <path class="cls-2" d="M461.09,52.57c-14.02-10.49-28.5-13.78-43.42-9.84-9.68,2.63-17.88,8.16-24.6,16.6-6.73,8.45-10.99,18.33-12.79,29.64-1.81,11.32-1.15,23.45,1.97,36.41,4.92,18.86,14.43,33.54,28.54,44.03,14.1,10.5,28.62,13.78,43.54,9.84,9.68-2.62,17.88-8.16,24.6-16.6,6.72-8.45,10.98-18.33,12.79-29.64,1.8-11.32,1.15-23.45-1.97-36.41-5.08-18.86-14.64-33.54-28.66-44.03ZM441.9,118.13c-4.02,4.67-6.03,10.62-6.03,17.83,0-7.21-1.97-13.16-5.9-17.83-3.94-4.67-8.53-7.01-13.78-7.01,5.25,0,9.84-2.34,13.78-7.01,3.94-4.67,5.9-10.7,5.9-18.08,0,4.92.98,9.35,2.95,13.28,1.97,3.94,4.43,6.89,7.38,8.86,2.95,1.97,6.06,2.95,9.35,2.95-5.09,0-9.64,2.34-13.65,7.01Z"/>
  <path class="cls-2" d="M68.47,106.4c-10.78-5.56-22.51-6.45-34.91-2.66.16,5.63,1.75,20.92,13.61,34.51,13.18,15.1,34.65,23.95,63.87,26.33-4.45-12.42-18.26-45.63-42.57-58.18Z"/>
  <path class="cls-2" d="M583.23,83.44c1.64-3.85,2.46-8.81,2.46-14.88s-.82-11.03-2.46-14.88c-1.64-3.85-4.35-6.72-8.12-8.61-3.77-1.88-7.87-3.11-12.3-3.69-4.43-.57-10.17-.86-17.22-.86v56.09c7.05,0,12.79-.28,17.22-.86,4.43-.57,8.53-1.8,12.3-3.69,3.77-1.88,6.48-4.75,8.12-8.61Z"/>
  <path class="cls-2" d="M774.25,52.57c-14.02-10.49-28.5-13.78-43.42-9.84-9.68,2.63-17.88,8.16-24.6,16.6-6.73,8.45-10.99,18.33-12.79,29.64-1.81,11.32-1.15,23.45,1.97,36.41,4.92,18.86,14.43,33.54,28.54,44.03,14.1,10.5,28.62,13.78,43.54,9.84,9.67-2.62,17.87-8.16,24.6-16.6,6.72-8.45,10.99-18.33,12.79-29.64,1.8-11.32,1.14-23.45-1.97-36.41-5.09-18.86-14.64-33.54-28.66-44.03ZM755.06,118.13c-4.02,4.67-6.03,10.62-6.03,17.83,0-7.21-1.97-13.16-5.9-17.83-3.94-4.67-8.53-7.01-13.78-7.01,5.25,0,9.84-2.34,13.78-7.01,3.94-4.67,5.9-10.7,5.9-18.08,0,4.92.98,9.35,2.95,13.28s4.43,6.89,7.38,8.86c2.95,1.97,6.07,2.95,9.35,2.95-5.09,0-9.64,2.34-13.65,7.01Z"/>
  <path class="cls-1" d="M438.83,99.31c-1.97-3.94-2.95-8.36-2.95-13.28,0,7.38-1.97,13.41-5.9,18.08-3.94,4.67-8.53,7.01-13.78,7.01,5.25,0,9.84,2.34,13.78,7.01,3.94,4.67,5.9,10.62,5.9,17.83,0-7.21,2.01-13.16,6.03-17.83,4.02-4.67,8.57-7.01,13.65-7.01-3.28,0-6.4-.98-9.35-2.95-2.95-1.97-5.41-4.92-7.38-8.86Z"/>
  <path class="cls-1" d="M436,36.58c-20.58,0-38.13,7.26-52.64,21.77s-21.77,32.06-21.77,52.64,7.26,38.13,21.77,52.64c14.51,14.51,32.06,21.77,52.64,21.77s38.13-7.26,52.64-21.77c14.51-14.51,21.77-32.06,21.77-52.64s-7.26-38.13-21.77-52.64-32.06-21.77-52.64-21.77ZM491.72,133.01c-1.81,11.32-6.07,21.2-12.79,29.64-6.73,8.45-14.93,13.98-24.6,16.6-14.92,3.94-29.44.66-43.54-9.84-14.11-10.49-23.62-25.17-28.54-44.03-3.12-12.95-3.77-25.09-1.97-36.41,1.8-11.32,6.06-21.19,12.79-29.64,6.72-8.44,14.92-13.98,24.6-16.6,14.92-3.94,29.4-.65,43.42,9.84,14.02,10.5,23.57,25.18,28.66,44.03,3.12,12.96,3.77,25.09,1.97,36.41Z"/>
  <path class="cls-1" d="M604.02,176.92c-2.05-1.88-3.73-4.47-5.04-7.75l-21.89-70.85c5.74-1.15,10.49-2.83,14.27-5.04,3.77-2.21,6.85-5.37,9.23-9.47,2.38-4.1,3.57-9.18,3.57-15.25,0-3.94-.49-7.5-1.48-10.7-.98-3.2-2.38-5.86-4.18-8-1.81-2.13-4.02-4.02-6.64-5.66-2.62-1.64-5.5-2.91-8.61-3.81-3.12-.9-6.52-1.68-10.21-2.34-3.69-.65-7.54-1.02-11.56-1.11-4.02-.08-8.16-.2-12.42-.37-4.27-.16-8.53-.16-12.79,0h-24.6v3.69h.25c5.25,0,9.1,1.15,11.56,3.44,2.46,2.3,3.69,6.23,3.69,11.81v110.95c0,5.58-1.23,9.51-3.69,11.81-2.46,2.3-6.32,3.44-11.56,3.44h-.25v3.69h49.45v-3.69h-.25c-2.62,0-4.84-.25-6.64-.74-1.81-.49-3.36-1.31-4.68-2.46-1.31-1.15-2.3-2.71-2.95-4.67-.66-1.97-.98-4.43-.98-7.38v-65.93c5.08,0,9.35-.08,12.79-.25l21.16,66.17c1.64,5.41,1.76,9.31.37,11.69-1.4,2.38-4.64,3.57-9.72,3.57h-.25v3.69h49.45v-3.69c-3.44,0-6.36-.33-8.73-.98-2.38-.65-4.59-1.93-6.64-3.81ZM562.81,95.74c-4.43.58-10.17.86-17.22.86v-56.09c7.05,0,12.79.29,17.22.86,4.43.58,8.53,1.81,12.3,3.69,3.77,1.89,6.48,4.76,8.12,8.61,1.64,3.85,2.46,8.82,2.46,14.88s-.82,11.03-2.46,14.88c-1.64,3.85-4.35,6.73-8.12,8.61-3.77,1.89-7.87,3.12-12.3,3.69Z"/>
  <path class="cls-1" d="M624.06,40.27h.25c5.25,0,9.1,1.15,11.56,3.44,2.46,2.3,3.69,6.23,3.69,11.81v110.95c0,5.58-1.23,9.51-3.69,11.81-2.46,2.3-6.32,3.44-11.56,3.44h-.25v3.69h49.45v-3.69h-.25c-3.44,0-6.27-.45-8.49-1.35-2.21-.9-3.9-2.5-5.04-4.8-1.15-2.29-1.72-5.33-1.72-9.1V55.52c0-5.57,1.23-9.51,3.69-11.81,2.46-2.29,6.31-3.44,11.56-3.44h.25v-3.69h-49.45v3.69Z"/>
  <path class="cls-1" d="M751.98,99.31c-1.97-3.94-2.95-8.36-2.95-13.28,0,7.38-1.97,13.41-5.9,18.08-3.94,4.67-8.53,7.01-13.78,7.01,5.25,0,9.84,2.34,13.78,7.01,3.94,4.67,5.9,10.62,5.9,17.83,0-7.21,2.01-13.16,6.03-17.83,4.02-4.67,8.57-7.01,13.65-7.01-3.28,0-6.4-.98-9.35-2.95-2.95-1.97-5.41-4.92-7.38-8.86Z"/>
  <path class="cls-1" d="M749.15,36.58c-20.58,0-38.13,7.26-52.64,21.77-14.51,14.51-21.77,32.06-21.77,52.64s7.26,38.13,21.77,52.64c14.51,14.51,32.06,21.77,52.64,21.77s38.13-7.26,52.64-21.77c14.51-14.51,21.77-32.06,21.77-52.64s-7.26-38.13-21.77-52.64c-14.51-14.51-32.06-21.77-52.64-21.77ZM804.87,133.01c-1.81,11.32-6.07,21.2-12.79,29.64-6.73,8.45-14.93,13.98-24.6,16.6-14.93,3.94-29.44.66-43.54-9.84-14.11-10.49-23.62-25.17-28.54-44.03-3.12-12.95-3.78-25.09-1.97-36.41,1.8-11.32,6.07-21.19,12.79-29.64,6.72-8.44,14.92-13.98,24.6-16.6,14.92-3.94,29.4-.65,43.42,9.84,14.02,10.5,23.57,25.18,28.66,44.03,3.11,12.96,3.77,25.09,1.97,36.41Z"/>
  <path class="cls-1" d="M920.98,43.72c2.46-2.29,6.31-3.44,11.56-3.44h.25v-3.69h-34.44v3.69h.24c3.45,0,6.27.49,8.49,1.48,2.21.98,3.89,2.58,5.04,4.8,1.14,2.21,1.72,5.21,1.72,8.98v119.06l-55.6-138.01h-33.46v3.69h.25c5.25,0,9.1,1.15,11.56,3.44,2.46,2.3,3.69,6.23,3.69,11.81v110.95c0,5.58-1.23,9.51-3.69,11.81-2.46,2.3-6.32,3.44-11.56,3.44h-.25v3.69h34.44v-3.69h-.25c-5.25,0-9.06-1.14-11.44-3.44-2.38-2.29-3.57-6.23-3.57-11.81V47.41l55.35,138.01h33.46v-3.69h-.25c-5.25,0-9.1-1.14-11.56-3.44-2.46-2.29-3.69-6.23-3.69-11.81V55.52c0-5.57,1.23-9.51,3.69-11.81Z"/>
  <path class="cls-1" d="M16.65,78.94l-1.37-.03-.36,1.33c-2.03,7.55-18.23,74.56,38.51,101.36.22.11,22.87,11.23,53.18,14.71l23.1,7.84.12-2.31c.66-12.62,0-56.49-35.89-91.06-1.11-1.25-27.72-30.68-77.29-31.84ZM47.18,138.25c-11.86-13.59-13.45-28.88-13.61-34.51,12.4-3.79,24.13-2.9,34.91,2.66,24.31,12.55,38.13,45.76,42.57,58.18-29.22-2.38-50.69-11.23-63.87-26.33Z"/>
  <path class="cls-1" d="M299.25,76.68l-1.37.03c-49.64,1.15-76.19,30.59-77.2,31.74-35.99,34.66-36.64,78.53-35.98,91.15l.12,2.31,22.91-7.8.2-.04c29.91-3.44,52.23-14.24,53.14-14.69,56.77-26.82,40.58-93.82,38.54-101.38l-.36-1.33ZM267.34,136.02c-13.18,15.1-34.65,23.95-63.87,26.33,4.45-12.43,18.27-45.63,42.57-58.18,6.41-3.31,13.16-4.97,20.19-4.97,4.78,0,9.69.77,14.71,2.3-.16,5.65-1.75,20.92-13.61,34.51Z"/>
  <path class="cls-1" d="M204.98,78.88c13.82-31.2-15.12-55.16-15.41-55.39l-7.11-5.76,2.81,8.71c4.61,14.33,4.49,25.81-.38,34.13-5.34,9.14-15.56,12.92-23.19,14.47-7.18,1.46-14.72-.13-20.69-4.37-23.88-16.96-5.74-44.26-4.96-45.41l4.41-6.48-7.47,2.35c-28.8,9.07-31.89,39.21-31.92,39.51v.14s-.01.14-.01.14c.38,40.71,48,43.12,51.3,43.23,3.16.41,6.14.6,8.97.6,32.99,0,43.59-25.67,43.66-25.86Z"/>
</svg>