<svg width="31" height="25" viewBox="0 0 31 25" fill="none" xmlns="http://www.w3.org/2000/svg">
<path d="M30.7702 2.95962C29.626 3.46154 28.4067 3.79423 27.1356 3.95577C28.4433 3.175 29.4414 1.94808 29.9106 0.469231C28.6914 1.19615 27.3452 1.70962 25.9106 1.99615C24.7529 0.763462 23.1029 0 21.3029 0C17.8106 0 14.9991 2.83462 14.9991 6.30962C14.9991 6.80962 15.0414 7.29038 15.1452 7.74808C9.90098 7.49231 5.26059 4.97885 2.14328 1.15C1.59905 2.09423 1.27982 3.175 1.27982 4.33846C1.27982 6.52308 2.40482 8.45961 4.08175 9.58077C3.06828 9.56154 2.07405 9.26731 1.23175 8.80385C1.23175 8.82308 1.23175 8.84808 1.23175 8.87308C1.23175 11.9385 3.41828 14.4846 6.28559 15.0712C5.77213 15.2115 5.21252 15.2788 4.63175 15.2788C4.2279 15.2788 3.82021 15.2558 3.43752 15.1712C4.25482 17.6692 6.57405 19.5058 9.33175 19.5654C7.18559 21.2442 4.46059 22.2558 1.51059 22.2558C0.993284 22.2558 0.49713 22.2327 0.000976562 22.1692C2.79521 23.9712 6.10675 25 9.6779 25C21.2856 25 27.6317 15.3846 27.6317 7.05C27.6317 6.77115 27.6221 6.50192 27.6087 6.23462C28.8606 5.34615 29.9125 4.23654 30.7702 2.95962Z" fill="#E4FCFF"/>
</svg>
