<svg width="39" height="25" viewBox="0 0 39 25" fill="none" xmlns="http://www.w3.org/2000/svg">
<path d="M37.664 5.39433C37.664 5.39433 37.2925 2.94363 36.1482 1.86754C34.6993 0.451264 33.0795 0.444321 32.3365 0.361011C27.0163 -1.98627e-07 19.0287 0 19.0287 0H19.0138C19.0138 0 11.0262 -1.98627e-07 5.70603 0.361011C4.963 0.444321 3.34318 0.451264 1.89426 1.86754C0.749979 2.94363 0.385891 5.39433 0.385891 5.39433C0.385891 5.39433 -0.000488281 8.27548 -0.000488281 11.1497V13.8434C-0.000488281 16.7176 0.37846 19.5987 0.37846 19.5987C0.37846 19.5987 0.749979 22.0494 1.88682 23.1255C3.33575 24.5418 5.23792 24.4932 6.08498 24.6459C9.13143 24.9167 19.0212 25 19.0212 25C19.0212 25 27.0163 24.9861 32.3365 24.632C33.0795 24.5487 34.6993 24.5418 36.1482 23.1255C37.2925 22.0494 37.664 19.5987 37.664 19.5987C37.664 19.5987 38.043 16.7245 38.043 13.8434V11.1497C38.043 8.27548 37.664 5.39433 37.664 5.39433ZM15.0906 17.1133V7.12302L25.3668 12.1355L15.0906 17.1133Z" fill="#E4FCFF"/>
</svg>
